<svg width="16" height="17" viewBox="0 0 16 17" fill="none" xmlns="http://www.w3.org/2000/svg">
<path d="M8.01057 0C12.423 3.94979e-06 16 3.57699 16 7.98943V8.08521C16 12.4851 12.4332 16.052 8.0333 16.052H0V8.026C0 3.6029 3.58545 0 8.01057 0ZM4.14175 12.268C2.50233 12.2994 1.67887 13.1412 1.24412 13.9793C1.02227 14.4069 0.901746 14.8366 0.837049 15.162C0.828436 15.2053 0.820915 15.2467 0.814227 15.2858H7.52765C7.52054 15.2395 7.51248 15.1899 7.50277 15.1375C7.44035 14.8013 7.32177 14.3596 7.09916 13.9247C6.87715 13.491 6.55626 13.0726 6.0915 12.7659C5.62983 12.4613 5.00324 12.2515 4.14175 12.268ZM8.33663 15.2793C12.046 15.1256 15.0306 12.1658 15.2237 8.46674L8.3617 8.44008L8.33663 15.2793ZM0.766243 13.2766C1.10754 12.745 1.59911 12.2408 2.29742 11.9064C2.12312 11.8245 1.96067 11.7307 1.80963 11.6267C1.35653 11.3148 1.01849 10.9211 0.766243 10.5151V13.2766ZM7.58798 10.4779C7.24021 11.014 6.73889 11.5208 6.02584 11.8576C6.20003 11.9364 6.36239 12.0266 6.51353 12.1263C6.97745 12.4324 7.32216 12.8198 7.57797 13.2205L7.58798 10.4779ZM0.811421 8.41071C0.819169 8.45941 0.828015 8.51174 0.838546 8.56701C0.904175 8.91147 1.02599 9.36407 1.24907 9.80991C1.47186 10.2552 1.79006 10.683 2.2442 10.9957C2.69424 11.3055 3.29973 11.5178 4.12707 11.502C5.82971 11.4693 6.67542 10.6125 7.11702 9.76623C7.34268 9.3338 7.46374 8.89936 7.52793 8.57047C7.53709 8.52353 7.54485 8.47885 7.55178 8.4369L0.811421 8.41071ZM8.36479 7.63362C8.4138 7.62636 8.46655 7.61812 8.5224 7.6079C8.86398 7.54538 9.31403 7.42447 9.75968 7.19288C10.2039 6.96206 10.6374 6.62483 10.9607 6.13032C11.2825 5.63807 11.5095 4.96812 11.5095 4.04663C11.5095 2.68191 10.6738 1.87126 9.76913 1.38124C9.31711 1.1364 8.86125 0.980633 8.51604 0.886156C8.47269 0.874294 8.43119 0.863435 8.39182 0.853512L8.36479 7.63362ZM7.62586 0.776345C3.93096 0.970604 0.967968 3.94649 0.776158 7.64438L7.59845 7.67085L7.62586 0.776345ZM12.2758 4.04663C12.2758 5.10078 12.0138 5.91978 11.6021 6.54964C11.2765 7.04752 10.8664 7.41341 10.4442 7.68198L15.228 7.7005C15.1217 5.00007 13.533 2.68066 11.2531 1.53333C11.837 2.12513 12.2758 2.93989 12.2758 4.04663Z" fill="#190A2B"/>
<path d="M11.6021 6.54964C12.0138 5.91978 12.2758 5.10078 12.2758 4.04662C12.2758 2.93989 11.837 2.12513 11.2531 1.53333C13.533 2.68066 15.1217 5.00007 15.228 7.7005L10.4442 7.68198C10.8664 7.4134 11.2765 7.04752 11.6021 6.54964Z" fill="#CAB2F9"/>
<path d="M2.29742 11.9064C1.59911 12.2408 1.10754 12.745 0.766243 13.2766V10.5151C1.01849 10.9211 1.35653 11.3148 1.80963 11.6267C1.96067 11.7307 2.12312 11.8245 2.29742 11.9064Z" fill="#CAB2F9"/>
<path d="M6.02584 11.8576C6.7389 11.5208 7.24022 11.014 7.58798 10.4779L7.57797 13.2205C7.32216 12.8198 6.97745 12.4324 6.51353 12.1263C6.36239 12.0266 6.20003 11.9364 6.02584 11.8576Z" fill="#CAB2F9"/>
<path d="M15.2237 8.46674C15.0306 12.1658 12.046 15.1256 8.33663 15.2793L8.3617 8.44009L15.2237 8.46674Z" fill="#B739F6"/>
<path d="M1.24412 13.9793C1.67887 13.1412 2.50233 12.2994 4.14176 12.268C5.00324 12.2515 5.62983 12.4613 6.09151 12.7659C6.55627 13.0726 6.87716 13.491 7.09916 13.9247C7.32177 14.3596 7.44036 14.8013 7.50277 15.1375C7.51249 15.1899 7.52054 15.2394 7.52765 15.2858H0.814232C0.82092 15.2467 0.828441 15.2053 0.837055 15.162C0.901751 14.8366 1.02228 14.4069 1.24412 13.9793Z" fill="#633AF6"/>
<path d="M0.83855 8.56701C0.828019 8.51174 0.819172 8.45941 0.811424 8.41071L7.55178 8.4369C7.54485 8.47885 7.53709 8.52353 7.52793 8.57047C7.46374 8.89935 7.34269 9.3338 7.11703 9.76623C6.67542 10.6125 5.82972 11.4693 4.12707 11.502C3.29973 11.5178 2.69424 11.3055 2.2442 10.9957C1.79006 10.683 1.47187 10.2552 1.24908 9.80991C1.02599 9.36407 0.904178 8.91146 0.83855 8.56701Z" fill="#ED6FC5"/>
<path d="M8.52239 7.60789C8.46655 7.61812 8.4138 7.62636 8.36478 7.63362L8.39182 0.853508C8.43119 0.863432 8.47269 0.87429 8.51603 0.886152C8.86125 0.98063 9.31711 1.13639 9.76913 1.38124C10.6738 1.87125 11.5095 2.6819 11.5095 4.04662C11.5095 4.96811 11.2825 5.63807 10.9607 6.13031C10.6374 6.62482 10.2039 6.96206 9.75968 7.19288C9.31402 7.42447 8.86397 7.54538 8.52239 7.60789Z" fill="#653CF4"/>
<path d="M0.776161 7.64438C0.967971 3.94649 3.93096 0.970604 7.62586 0.776344L7.59846 7.67085L0.776161 7.64438Z" fill="#B739F6"/>
</svg>
