<svg width="110" height="32" viewBox="0 0 110 32" fill="none" xmlns="http://www.w3.org/2000/svg">
<path d="M50.0859 25.1121H47.8817V17.6181C47.8817 16.663 47.643 15.9099 47.1654 15.3588C46.6878 14.8078 46.0358 14.5323 45.2092 14.5323C44.2357 14.5323 43.5745 14.7986 43.2255 15.3313C42.8765 15.8456 42.6653 16.2681 42.5918 16.5987C42.5184 16.9109 42.4816 17.3885 42.4816 18.0314V25.1121H40.2775V17.8109C40.2775 15.6252 39.3499 14.5323 37.4948 14.5323C36.558 14.5323 35.906 14.7986 35.5386 15.3313C35.1896 15.864 34.9876 16.2681 34.9325 16.5436C34.8774 16.8191 34.8498 17.2783 34.8498 17.9211V25.1121H32.6457V17.5905C32.6457 16.5803 32.7284 15.8089 32.8937 15.2762C33.0774 14.7435 33.509 14.1282 34.1886 13.4302C34.8682 12.7139 35.9335 12.3557 37.3846 12.3557C39.1479 12.3557 40.4887 13.1272 41.4071 14.6701C42.2888 13.1272 43.6021 12.3557 45.347 12.3557C46.798 12.3557 47.946 12.8149 48.7909 13.7333C49.6542 14.6333 50.0859 15.8456 50.0859 17.3701V25.1121Z" fill="#F5F5F5"/>
<path d="M58.6718 12.3557C60.4535 12.3557 61.978 12.9986 63.2454 14.2843C64.5128 15.5701 65.1465 17.1221 65.1465 18.9406C65.1465 20.6855 64.5128 22.1916 63.2454 23.459C61.978 24.7264 60.4535 25.3601 58.6718 25.3601C56.8351 25.3601 55.2738 24.7264 53.9881 23.459C52.7023 22.1916 52.0595 20.6396 52.0595 18.8028C52.0595 17.0395 52.7023 15.5242 53.9881 14.2568C55.2738 12.9894 56.8351 12.3557 58.6718 12.3557ZM58.6718 14.5323C57.4779 14.5323 56.4585 14.9456 55.6136 15.7721C54.7687 16.5987 54.3462 17.6089 54.3462 18.8028C54.3462 20.0518 54.7595 21.0988 55.5861 21.9437C56.431 22.7702 57.4779 23.1835 58.7269 23.1835C59.829 23.1835 60.7933 22.761 61.6199 21.9161C62.4464 21.0712 62.8597 20.0794 62.8597 18.9406C62.8597 17.7099 62.4464 16.6721 61.6199 15.8272C60.8117 14.9639 59.829 14.5323 58.6718 14.5323Z" fill="#F5F5F5"/>
<path d="M67.207 25.1121V23.1835H72.4143C73.1306 23.1835 73.5806 23.1743 73.7643 23.1559C73.948 23.1192 74.1867 23.0274 74.4806 22.8804C74.7929 22.7151 74.949 22.3569 74.949 21.8059C74.949 21.1814 74.5725 20.7406 73.8194 20.4834L69.1632 18.8303C68.2815 18.5181 67.6478 18.1324 67.2621 17.6732C66.8948 17.1956 66.7111 16.5619 66.7111 15.7721C66.7111 13.6598 68.2356 12.6037 71.2846 12.6037H76.299V14.5323H70.954C69.6132 14.5323 68.9428 15.0007 68.9428 15.9374C68.9428 16.5252 69.3285 16.9477 70.0999 17.2048L74.4531 18.7477C75.4817 19.0967 76.198 19.51 76.6021 19.9875C77.0246 20.4467 77.2358 21.0712 77.2358 21.861C77.2358 24.0284 75.849 25.1121 73.0755 25.1121H67.207Z" fill="#F5F5F5"/>
<path d="M92.0383 25.1121H89.8342V19.6293C89.8342 18.0865 89.4393 16.8558 88.6495 15.9374C87.878 15.0007 86.831 14.5323 85.5086 14.5323C84.3147 14.5323 83.3044 14.9548 82.4779 15.7997C81.6514 16.6446 81.2381 17.6732 81.2381 18.8855C81.2381 20.0977 81.6514 21.1171 82.4779 21.9437C83.3044 22.7702 84.333 23.1835 85.5637 23.1835C86.6657 23.1835 87.7862 22.6784 88.925 21.6682L89.8342 20.7307V23.1835C89.8342 23.1835 89.5127 23.5141 88.925 24.01C88.3372 24.506 87.7678 24.855 87.2168 25.057C86.6657 25.259 86.0229 25.3601 85.2882 25.3601C83.5249 25.3601 82.0279 24.7356 80.7973 23.4866C79.5666 22.2376 78.9513 20.7039 78.9513 18.8855C78.9513 17.0854 79.585 15.5517 80.8524 14.2843C82.1381 12.9986 83.6994 12.3557 85.5361 12.3557C87.4096 12.3557 88.9617 12.9986 90.1923 14.2843C91.423 15.5701 92.0383 17.2048 92.0383 19.1885V25.1121Z" fill="#F5F5F5"/>
<path d="M97.8553 25.1121H95.6512V12.6037H97.8553V25.1121Z" fill="#F5F5F5"/>
<path d="M109.163 23.1559V25.1121H107.538C106.325 25.1121 105.333 24.9743 104.562 24.6988C103.809 24.4233 102.973 23.808 102.055 22.8529C101.136 21.8978 100.677 20.5569 100.677 18.8303C100.677 17.9303 100.888 17.0395 101.311 16.1578C101.733 15.2578 102.395 14.4405 103.295 13.7058C104.213 12.971 105.563 12.6037 107.345 12.6037H109.163V14.5323H107.868C106.362 14.5323 105.168 14.9272 104.286 15.717C103.405 16.5068 102.964 17.5722 102.964 18.913C102.964 20.2355 103.396 21.2733 104.259 22.0263C105.122 22.7794 106.307 23.1559 107.813 23.1559H109.163Z" fill="#F5F5F5"/>
<path d="M12.0159 6.81889C18.6345 6.8189 24 12.1844 24 18.803V18.9467C24 25.5466 18.6498 30.8969 12.0499 30.8969H0V18.8579C0 12.2232 5.37818 6.81889 12.0159 6.81889ZM6.21263 25.2209C3.75349 25.2681 2.5183 26.5308 1.86617 27.7878C1.53341 28.4292 1.35262 29.0738 1.25557 29.5619C1.24265 29.6269 1.23137 29.689 1.22134 29.7475H11.2915C11.2808 29.6781 11.2687 29.6037 11.2541 29.5252C11.1605 29.0208 10.9826 28.3583 10.6487 27.706C10.3157 27.0554 9.8344 26.4278 9.13725 25.9678C8.44474 25.5108 7.50486 25.1962 6.21263 25.2209ZM12.505 29.7379C18.069 29.5073 22.546 25.0676 22.8356 19.519L12.5426 19.479L12.505 29.7379ZM1.14936 26.7338C1.66131 25.9363 2.39866 25.18 3.44613 24.6785C3.18469 24.5557 2.941 24.415 2.71445 24.259C2.0348 23.791 1.52774 23.2006 1.14936 22.5915V26.7338ZM11.382 22.5358C10.8603 23.3399 10.1083 24.1001 9.03876 24.6053C9.30005 24.7235 9.54359 24.8588 9.7703 25.0084C10.4662 25.4676 10.9832 26.0485 11.367 26.6496L11.382 22.5358ZM1.21713 19.435C1.22875 19.508 1.24202 19.5865 1.25782 19.6694C1.35626 20.1861 1.53899 20.865 1.87361 21.5338C2.2078 22.2016 2.68509 22.8433 3.3663 23.3124C4.04136 23.7772 4.94959 24.0956 6.1906 24.0718C8.74457 24.0229 10.0131 22.7376 10.6755 21.4682C11.014 20.8196 11.1956 20.1679 11.2919 19.6746C11.3056 19.6042 11.3173 19.5372 11.3277 19.4743L1.21713 19.435ZM12.5472 18.2693C12.6207 18.2584 12.6998 18.2461 12.7836 18.2307C13.296 18.137 13.971 17.9556 14.6395 17.6082C15.3058 17.262 15.9561 16.7561 16.441 16.0144C16.9237 15.276 17.2643 14.2711 17.2643 12.8888C17.2643 10.8418 16.0107 9.62578 14.6537 8.89075C13.9757 8.52349 13.2919 8.28984 12.7741 8.14813C12.709 8.13033 12.6468 8.11405 12.5877 8.09916L12.5472 18.2693ZM11.4388 7.98341C5.89643 8.2748 1.45195 12.7386 1.16424 18.2855L11.3977 18.3252L11.4388 7.98341ZM18.4137 12.8888C18.4137 14.4701 18.0208 15.6986 17.4031 16.6434C16.9148 17.3902 16.2996 17.939 15.6663 18.3419L22.8419 18.3696C22.6826 14.319 20.2996 10.8399 16.8796 9.11889C17.7554 10.0066 18.4137 11.2287 18.4137 12.8888Z" fill="#F5F5F5"/>
<path d="M17.4031 16.6433C18.0208 15.6986 18.4137 14.4701 18.4137 12.8888C18.4137 11.2287 17.7554 10.0066 16.8796 9.11888C20.2996 10.8399 22.6826 14.319 22.8419 18.3696L15.6663 18.3419C16.2996 17.939 16.9148 17.3902 17.4031 16.6433Z" fill="#CAB2F9"/>
<path d="M3.44613 24.6785C2.39866 25.18 1.66131 25.9363 1.14936 26.7338V22.5915C1.52774 23.2006 2.0348 23.791 2.71445 24.259C2.941 24.415 3.18468 24.5557 3.44613 24.6785Z" fill="#CAB2F9"/>
<path d="M9.03876 24.6053C10.1083 24.1001 10.8603 23.3399 11.382 22.5358L11.367 26.6496C10.9832 26.0485 10.4662 25.4676 9.7703 25.0084C9.54358 24.8588 9.30004 24.7235 9.03876 24.6053Z" fill="#CAB2F9"/>
<path d="M22.8356 19.519C22.546 25.0676 18.0689 29.5073 12.505 29.7379L12.5426 19.479L22.8356 19.519Z" fill="#B739F6"/>
<path d="M1.86617 27.7878C2.5183 26.5307 3.75349 25.2681 6.21263 25.2209C7.50486 25.1962 8.44474 25.5108 9.13725 25.9678C9.8344 26.4278 10.3157 27.0554 10.6487 27.706C10.9826 28.3583 11.1605 29.0208 11.2541 29.5251C11.2687 29.6037 11.2808 29.6781 11.2915 29.7475H1.22134C1.23137 29.689 1.24265 29.6269 1.25557 29.5619C1.35262 29.0738 1.53341 28.4292 1.86617 27.7878Z" fill="#633AF6"/>
<path d="M1.25782 19.6694C1.24202 19.5865 1.22875 19.508 1.21713 19.435L11.3277 19.4742C11.3173 19.5372 11.3056 19.6042 11.2919 19.6746C11.1956 20.1679 11.014 20.8196 10.6755 21.4682C10.0131 22.7376 8.74457 24.0229 6.1906 24.0718C4.94959 24.0956 4.04136 23.7772 3.3663 23.3124C2.68509 22.8433 2.2078 22.2016 1.87361 21.5338C1.53899 20.865 1.35626 20.1861 1.25782 19.6694Z" fill="#ED6FC5"/>
<path d="M12.7836 18.2307C12.6998 18.2461 12.6207 18.2584 12.5472 18.2693L12.5877 8.09916C12.6468 8.11404 12.709 8.13033 12.7741 8.14813C13.2919 8.28984 13.9757 8.52348 14.6537 8.89075C16.0107 9.62578 17.2643 10.8418 17.2643 12.8888C17.2643 14.2711 16.9237 15.276 16.441 16.0144C15.9561 16.7561 15.3058 17.262 14.6395 17.6082C13.971 17.9556 13.296 18.137 12.7836 18.2307Z" fill="#653CF4"/>
<path d="M1.16424 18.2855C1.45195 12.7386 5.89643 8.27479 11.4388 7.98341L11.3977 18.3252L1.16424 18.2855Z" fill="#B739F6"/>
</svg>
