<svg width="82" height="24" viewBox="0 0 82 24" fill="none" xmlns="http://www.w3.org/2000/svg">
<path d="M9.32057 4.42154C14.2786 4.42154 18.2979 8.44081 18.2979 13.3988V13.5065C18.2979 18.4504 14.29 22.4583 9.34611 22.4583H0.319515V13.4399C0.319515 8.46993 4.3483 4.42154 9.32057 4.42154ZM4.97338 18.2065C3.13125 18.2418 2.20597 19.1877 1.71746 20.1293C1.46819 20.6098 1.33276 21.0927 1.26006 21.4583C1.25038 21.507 1.24193 21.5535 1.23442 21.5973H8.77793C8.76995 21.5453 8.76089 21.4896 8.74997 21.4308C8.67985 21.0529 8.54659 20.5567 8.29646 20.068C8.047 19.5807 7.68644 19.1105 7.16421 18.7659C6.64545 18.4236 5.94139 18.1879 4.97338 18.2065ZM9.68695 21.5901C13.8549 21.4173 17.2087 18.0916 17.4256 13.9352L9.71512 13.9052L9.68695 21.5901ZM1.1805 19.3398C1.564 18.7424 2.11635 18.1758 2.901 17.8001C2.70516 17.7081 2.52261 17.6027 2.3529 17.4859C1.84378 17.1353 1.46394 16.693 1.1805 16.2368V19.3398ZM8.84572 16.195C8.45496 16.7974 7.89165 17.3668 7.09043 17.7453C7.28616 17.8338 7.4686 17.9352 7.63843 18.0472C8.15971 18.3912 8.54703 18.8264 8.83448 19.2767L8.84572 16.195ZM1.23127 13.8722C1.23997 13.9269 1.24991 13.9857 1.26174 14.0478C1.33549 14.4349 1.47237 14.9434 1.72303 15.4444C1.97337 15.9447 2.33091 16.4254 2.8412 16.7768C3.34689 17.125 4.02725 17.3635 4.95688 17.3457C6.87006 17.309 7.82033 16.3462 8.31654 15.3953C8.5701 14.9094 8.70612 14.4213 8.77825 14.0517C8.78854 13.999 8.79726 13.9488 8.80505 13.9016L1.23127 13.8722ZM9.71858 12.999C9.77366 12.9909 9.83293 12.9816 9.89568 12.9701C10.2795 12.8999 10.7852 12.764 11.286 12.5038C11.785 12.2444 12.2722 11.8655 12.6354 11.3099C12.9971 10.7567 13.2522 10.0039 13.2522 8.96852C13.2522 7.43506 12.3131 6.52417 11.2966 5.97356C10.7887 5.69845 10.2764 5.52342 9.88853 5.41727C9.83983 5.40394 9.7932 5.39174 9.74896 5.38058L9.71858 12.999ZM8.88829 5.29388C4.73652 5.51216 1.40717 8.856 1.19164 13.0111L8.85749 13.0409L8.88829 5.29388ZM14.1132 8.96852C14.1132 10.153 13.8188 11.0733 13.3561 11.781C12.9904 12.3405 12.5295 12.7516 12.0551 13.0534L17.4304 13.0742C17.311 10.0399 15.5259 7.43366 12.964 6.14446C13.6201 6.80944 14.1132 7.72494 14.1132 8.96852Z" fill="#6B6B6B"/>
<path d="M37.5644 18.8341H35.9113V13.2135C35.9113 12.4972 35.7322 11.9324 35.374 11.5191C35.0159 11.1059 34.5268 10.8992 33.9069 10.8992C33.1768 10.8992 32.6809 11.099 32.4191 11.4985C32.1574 11.8842 31.999 12.201 31.9439 12.449C31.8888 12.6832 31.8612 13.0413 31.8612 13.5235V18.8341H30.2081V13.3582C30.2081 11.7189 29.5125 10.8992 28.1211 10.8992C27.4185 10.8992 26.9295 11.099 26.654 11.4985C26.3922 11.898 26.2407 12.201 26.1994 12.4077C26.158 12.6143 26.1374 12.9587 26.1374 13.4408V18.8341H24.4843V13.1929C24.4843 12.4352 24.5463 11.8566 24.6703 11.4571C24.808 11.0576 25.1318 10.5961 25.6415 10.0727C26.1512 9.53541 26.9502 9.26678 28.0384 9.26678C29.3609 9.26678 30.3666 9.84537 31.0553 11.0025C31.7166 9.84537 32.7015 9.26678 34.0102 9.26678C35.0985 9.26678 35.9595 9.61118 36.5932 10.3C37.2407 10.975 37.5644 11.8842 37.5644 13.0276V18.8341Z" fill="#6B6B6B"/>
<path d="M44.0039 9.26678C45.3401 9.26678 46.4835 9.74894 47.434 10.7132C48.3846 11.6775 48.8598 12.8416 48.8598 14.2054C48.8598 15.5141 48.3846 16.6437 47.434 17.5942C46.4835 18.5448 45.3401 19.02 44.0039 19.02C42.6263 19.02 41.4554 18.5448 40.4911 17.5942C39.5267 16.6437 39.0446 15.4797 39.0446 14.1021C39.0446 12.7796 39.5267 11.6431 40.4911 10.6926C41.4554 9.74205 42.6263 9.26678 44.0039 9.26678ZM44.0039 10.8992C43.1085 10.8992 42.3439 11.2092 41.7102 11.8291C41.0765 12.449 40.7597 13.2067 40.7597 14.1021C40.7597 15.0388 41.0696 15.8241 41.6895 16.4577C42.3232 17.0777 43.1085 17.3876 44.0452 17.3876C44.8718 17.3876 45.595 17.0708 46.2149 16.4371C46.8348 15.8034 47.1448 15.0595 47.1448 14.2054C47.1448 13.2824 46.8348 12.5041 46.2149 11.8704C45.6088 11.2229 44.8718 10.8992 44.0039 10.8992Z" fill="#6B6B6B"/>
<path d="M50.4053 18.8341V17.3876H54.3107C54.8479 17.3876 55.1855 17.3807 55.3232 17.3669C55.461 17.3394 55.6401 17.2705 55.8605 17.1603C56.0947 17.0363 56.2118 16.7677 56.2118 16.3544C56.2118 15.886 55.9293 15.5554 55.3645 15.3626L51.8724 14.1227C51.2111 13.8886 50.7359 13.5993 50.4466 13.2549C50.1711 12.8967 50.0333 12.4214 50.0333 11.8291C50.0333 10.2449 51.1767 9.45276 53.4635 9.45276H57.2243V10.8992H53.2155C52.2099 10.8992 51.7071 11.2505 51.7071 11.9531C51.7071 12.3939 51.9964 12.7107 52.5749 12.9036L55.8398 14.0608C56.6113 14.3225 57.1485 14.6325 57.4516 14.9906C57.7684 15.335 57.9268 15.8034 57.9268 16.3958C57.9268 18.0213 56.8868 18.8341 54.8066 18.8341H50.4053Z" fill="#6B6B6B"/>
<path d="M69.0287 18.8341H67.3756V14.722C67.3756 13.5648 67.0794 12.6419 66.4871 11.9531C65.9085 11.2505 65.1233 10.8992 64.1314 10.8992C63.236 10.8992 62.4783 11.2161 61.8584 11.8497C61.2385 12.4834 60.9286 13.2549 60.9286 14.1641C60.9286 15.0733 61.2385 15.8378 61.8584 16.4577C62.4783 17.0777 63.2498 17.3876 64.1728 17.3876C64.9993 17.3876 65.8396 17.0088 66.6937 16.2511L67.3756 15.548V17.3876C67.3756 17.3876 67.1346 17.6356 66.6937 18.0075C66.2529 18.3795 65.8259 18.6412 65.4126 18.7927C64.9993 18.9443 64.5172 19.02 63.9661 19.02C62.6436 19.02 61.5209 18.5517 60.5979 17.6149C59.675 16.6782 59.2135 15.5279 59.2135 14.1641C59.2135 12.8141 59.6887 11.6638 60.6393 10.7132C61.6036 9.74894 62.7745 9.26678 64.1521 9.26678C65.5572 9.26678 66.7213 9.74894 67.6443 10.7132C68.5672 11.6775 69.0287 12.9036 69.0287 14.3914V18.8341Z" fill="#6B6B6B"/>
<path d="M73.3915 18.8341H71.7384V9.45276H73.3915V18.8341Z" fill="#6B6B6B"/>
<path d="M81.8723 17.3669V18.8341H80.6532C79.744 18.8341 79.0001 18.7307 78.4215 18.5241C77.8567 18.3175 77.2299 17.856 76.5411 17.1396C75.8523 16.4233 75.5079 15.4177 75.5079 14.1227C75.5079 13.4477 75.6663 12.7796 75.9832 12.1184C76.3 11.4434 76.7959 10.8303 77.471 10.2793C78.1598 9.72827 79.1723 9.45276 80.5085 9.45276H81.8723V10.8992H80.9011C79.7715 10.8992 78.8761 11.1954 78.2149 11.7878C77.5536 12.3801 77.223 13.1791 77.223 14.1847C77.223 15.1766 77.5467 15.9549 78.1942 16.5197C78.8417 17.0845 79.7302 17.3669 80.8598 17.3669H81.8723Z" fill="#6B6B6B"/>
</svg>
