<svg width="124" height="34" viewBox="0 0 124 34" fill="none" xmlns="http://www.w3.org/2000/svg">
<path d="M23.2926 5.00219L29.2826 5C34.1297 12.9876 38.8612 21.0927 43.8524 28.9844L37.9728 28.9897C33.1056 20.9778 28.2279 12.9723 23.2926 5.00219Z" fill="url(#paint0_linear_9_1665)"/>
<path d="M113.079 11.2698C113.027 14.7203 113.063 18.2623 113.058 21.72L115.478 21.7239L115.476 23.9651C114.697 23.9856 113.846 23.9666 113.062 23.9642L113.055 27.0149L110.608 27.0237L110.595 23.9671L106.359 23.971L97.8613 23.9729L97.8672 21.2513L110.227 11.2884C111.113 11.254 112.178 11.2751 113.079 11.2698ZM110.496 13.8284C107.413 16.2948 103.753 19.0682 100.794 21.5892L100.796 21.6927L100.925 21.7112L110.626 21.7161C110.643 19.9679 110.648 18.2193 110.643 16.471C110.643 15.8918 110.677 14.3789 110.592 13.8811L110.496 13.8284Z" fill="#FBFBFB"/>
<path d="M83.7226 11.0804C85.4684 10.9942 87.2737 11.0272 89.0212 11.0666C90.5096 11.1003 92.7264 11.1971 93.8235 12.3739C94.9135 13.5429 94.8767 15.4447 94.8207 16.9506C94.7839 17.9416 94.5878 19.0776 93.8497 19.7999C91.6373 21.9673 82.2973 20.7689 80.8037 22.2225C80.2188 22.7916 80.3668 24.016 80.3703 24.7719L94.7865 24.7716L94.7857 27.0138L85.0044 27.0233C82.6449 27.0131 80.1952 27.0662 77.8488 27.0072C77.8365 25.5862 77.7323 24.0806 77.9083 22.6728C78.0099 21.8591 78.2498 21.0282 78.8758 20.4612C81.1477 18.4008 90.1874 19.5088 91.8282 18.1899C92.1696 17.9156 92.2685 17.6241 92.3158 17.2004C92.4218 16.257 92.5233 14.7784 91.8789 14.0117C91.4552 13.5062 90.4825 13.4378 89.8591 13.3931C88.2648 13.2789 82.0084 13.0175 80.991 14.0022C80.2144 14.7542 80.3589 16.2567 80.3528 17.2599L77.8698 17.2663C77.9197 12.4401 78.8661 11.3369 83.7226 11.0804Z" fill="#FBFBFB"/>
<path d="M26.1098 9.55172L23.2927 5.00218C23.2927 5.00218 12.7305 20.8324 7.82587 28.9891L13.7676 29C17.736 22.636 26.1098 9.55172 26.1098 9.55172Z" fill="url(#paint1_linear_9_1665)"/>
<path d="M42.7243 5.00026L47.4088 5.00499L47.3949 28.9892L43.8524 28.9844L42.6961 27.1562L42.7243 5.00026Z" fill="#FBFBFB"/>
<path d="M42.7243 5.00026L47.4088 5.00499L47.3949 28.9892L43.8524 28.9844L42.6961 27.1562L42.7243 5.00026Z" fill="url(#paint2_linear_9_1665)"/>
<path d="M28.152 21.9974C29.5102 24.3028 32.2451 28.9939 32.2451 28.9939L26.3719 28.993C24.9832 26.6507 23.5372 24.3452 22.1569 21.9974L28.152 21.9974Z" fill="url(#paint3_linear_9_1665)"/>
<path d="M61.9384 28.1503H63.6542L73.9682 11.2204H72.2468L61.9384 28.1503Z" fill="url(#paint4_linear_9_1665)"/>
<path d="M55.0654 28.1503H56.7811L67.0951 11.2204H65.3738L55.0654 28.1503Z" fill="url(#paint5_linear_9_1665)"/>
<defs>
<linearGradient id="paint0_linear_9_1665" x1="42.8891" y1="31.9443" x2="23.9182" y2="7.06686" gradientUnits="userSpaceOnUse">
<stop stop-color="#7D7B7B"/>
<stop offset="0.36628" stop-color="#D9D9D9"/>
</linearGradient>
<linearGradient id="paint1_linear_9_1665" x1="10.5925" y1="29" x2="24.8667" y2="7.63828" gradientUnits="userSpaceOnUse">
<stop offset="0.6" stop-color="#D9D9D9"/>
<stop offset="1" stop-color="#7D7B7B"/>
</linearGradient>
<linearGradient id="paint2_linear_9_1665" x1="45.346" y1="5.00026" x2="31.9922" y2="13.0753" gradientUnits="userSpaceOnUse">
<stop offset="0.500279" stop-color="#D9D9D9"/>
<stop offset="0.957265" stop-color="#7D7B7B"/>
</linearGradient>
<linearGradient id="paint3_linear_9_1665" x1="30.9838" y1="25.6035" x2="27.1374" y2="28.2213" gradientUnits="userSpaceOnUse">
<stop stop-color="#7EB5FB"/>
<stop offset="1" stop-color="#7C7FFD"/>
</linearGradient>
<linearGradient id="paint4_linear_9_1665" x1="73.0696" y1="11.2204" x2="62.8237" y2="28.1503" gradientUnits="userSpaceOnUse">
<stop stop-color="#7EB5FB"/>
<stop offset="1" stop-color="#7C7FFD"/>
</linearGradient>
<linearGradient id="paint5_linear_9_1665" x1="66.1965" y1="11.2204" x2="55.9506" y2="28.1503" gradientUnits="userSpaceOnUse">
<stop stop-color="#7EB5FB"/>
<stop offset="1" stop-color="#7C7FFD"/>
</linearGradient>
</defs>
</svg>
